<?xml version="1.0" encoding="utf-8"?>
<!-- Generator: Adobe Illustrator 16.0.0, SVG Export Plug-In . SVG Version: 6.00 Build 0)  -->
<!DOCTYPE svg PUBLIC "-//W3C//DTD SVG 1.1//EN" "http://www.w3.org/Graphics/SVG/1.1/DTD/svg11.dtd">
<svg version="1.1" xmlns="http://www.w3.org/2000/svg" xmlns:xlink="http://www.w3.org/1999/xlink" x="0px" y="0px" width="41px"
	 height="31px" viewBox="0 0 41 31" enable-background="new 0 0 41 31" xml:space="preserve">
<g id="background">
</g>
<g id="Layer_1">
	<g>
		<g>
			<path fill-rule="evenodd" clip-rule="evenodd" fill="#E5E5E5" d="M36.154,30.403c-0.128,0.027-0.257,0.078-0.386,0.078
				c-10.337,0.002-20.673,0.001-31.01,0c0-1.932,0.002-3.863-0.004-5.794c0-0.156-0.051-0.312-0.079-0.467
				c0.004-0.632,0.007-1.265,0.01-1.897c0.052-0.123,0.148-0.245,0.148-0.368c0.009-2.949,0.008-5.898,0.004-8.847
				c-0.001-0.114-0.053-0.229-0.081-0.343c0.003-0.357,0.006-0.714,0.009-1.072c0.053-0.121,0.146-0.241,0.15-0.364
				c0.017-0.56-0.001-1.121,0.012-1.681c0.006-0.283,0.051-0.564,0.078-0.846c0.104,0.063,0.212,0.122,0.31,0.192
				c2.118,1.515,4.234,3.03,6.352,4.546c1.982,1.42,3.96,2.85,5.952,4.257c0.965,0.682,1.959,1.322,2.939,1.981
				c0.116,0.095,0.226,0.2,0.35,0.282c1.553,1.033,3.115,2.053,4.661,3.097c3.127,2.11,6.246,4.231,9.365,6.353
				C35.352,29.792,35.749,30.105,36.154,30.403z M19.761,20.206c-0.03-0.042-0.061-0.085-0.091-0.127
				c-0.186,0.105-0.378,0.2-0.556,0.317c-4.671,3.106-9.34,6.214-14.009,9.322c-0.188,0.125-0.3,0.273-0.102,0.524
				C9.955,26.921,14.932,23.671,19.761,20.206z"/>
			<path fill-rule="evenodd" clip-rule="evenodd" fill="#3AAA95" d="M20.559,18.921c-0.98-0.659-1.975-1.299-2.939-1.981
				c-1.992-1.407-3.97-2.837-5.952-4.257C9.55,11.167,7.434,9.652,5.315,8.137c-0.098-0.07-0.206-0.128-0.31-0.192
				C4.622,7.738,4.796,8.08,4.75,8.206C4.728,8.31,4.686,8.415,4.685,8.52c-0.003,1.432-0.001,2.864,0,4.296
				c-0.028,0.444-0.075,0.888-0.081,1.332c-0.003,0.3,0.052,0.6,0.079,0.9c0.003,0.02,0.001,0.04-0.004,0.059
				c-0.028,0.086-0.081,0.171-0.081,0.257c-0.002,0.831,0.005,1.662,0.009,2.492c-0.004,1.313-0.011,2.626-0.012,3.938
				c0,1.299,0.006,2.598,0.01,3.896l-0.012,0.038c-0.027,0.127-0.078,0.255-0.079,0.382c-0.006,1.188-0.002,2.375-0.002,3.562
				c-0.611-0.066-1.231-0.09-1.833-0.207c-1.535-0.298-2.296-1.238-2.303-2.792c-0.022-5.381-0.045-10.761-0.059-16.142
				c-0.006-2.155,0.008-4.31,0.021-6.465C0.34,3.656,0.358,3.242,0.407,2.834c0.13-1.099,0.717-1.842,1.776-2.196
				c0.143-0.048,0.288-0.09,0.432-0.135c0.058-0.015,0.116-0.03,0.174-0.044c0.058-0.015,0.114-0.03,0.171-0.044
				c1.697,1.233,3.392,2.471,5.095,3.698c2.343,1.688,4.69,3.37,7.04,5.05c1.681,1.202,3.374,2.387,5.044,3.604
				c0.31,0.226,0.516,0.174,0.784-0.02c1.741-1.251,3.495-2.486,5.232-3.742c2.807-2.026,5.598-4.074,8.409-6.093
				c1.209-0.868,2.452-1.688,3.68-2.53c0.129,0.046,0.257,0.097,0.387,0.137c1.31,0.405,1.982,1.304,2.04,2.663
				c0.02,0.464-0.002,0.93-0.004,1.395c-0.3,0.223-0.597,0.451-0.9,0.669c-0.604,0.434-1.212,0.86-1.815,1.293
				c-0.501,0.359-0.997,0.725-1.495,1.088c-0.143,0.103-0.283,0.206-0.426,0.307c-1.984,1.414-3.967,2.828-5.952,4.24
				c-1.885,1.34-3.772,2.677-5.66,4.015C23.132,17.1,21.846,18.01,20.559,18.921z"/>
			<path fill-rule="evenodd" clip-rule="evenodd" fill="#E5E5E5" d="M38.244,0.393c-1.228,0.842-2.471,1.662-3.68,2.53
				c-2.812,2.019-5.603,4.067-8.409,6.093c-1.737,1.255-3.491,2.491-5.232,3.742c-0.269,0.193-0.475,0.245-0.784,0.02
				c-1.67-1.217-3.363-2.402-5.044-3.604c-2.35-1.68-4.697-3.362-7.04-5.05C6.352,2.896,4.657,1.658,2.96,0.425
				c0.078-0.015,0.156-0.041,0.233-0.041c11.643-0.002,23.285-0.003,34.928-0.002C38.162,0.382,38.203,0.389,38.244,0.393z"/>
			<path fill-rule="evenodd" clip-rule="evenodd" fill="#9B9B9B" d="M20.559,19.778c1.287-0.911,2.573-1.821,3.859-2.733
				c1.888-1.338,3.775-2.674,5.66-4.015c1.985-1.412,3.968-2.826,5.952-4.24c0.143-0.102,0.283-0.205,0.426-0.307
				c0.005,0.178,0.015,0.356,0.015,0.535c0,6.986-0.002,13.972-0.002,20.958c0,0.191,0.023,0.382,0.035,0.573
				c-0.116-0.048-0.232-0.097-0.35-0.146c-0.405-0.298-0.803-0.611-1.22-0.894c-3.119-2.122-6.238-4.242-9.365-6.353
				c-1.546-1.043-3.108-2.063-4.661-3.097C20.784,19.978,20.675,19.873,20.559,19.778z"/>
			<path fill-rule="evenodd" clip-rule="evenodd" fill="#33917F" d="M36.504,30.549c-0.012-0.191-0.035-0.382-0.035-0.573
				c0-6.986,0.002-13.972,0.002-20.958c0-0.178-0.01-0.356-0.015-0.535c0.498-0.363,0.994-0.729,1.495-1.088
				c0.604-0.434,1.212-0.86,1.815-1.293c0.304-0.218,0.601-0.446,0.9-0.669c0.006,2.194,0.018,4.389,0.018,6.583
				c0,4.952-0.004,9.904-0.015,14.855c-0.001,0.479-0.005,0.969-0.107,1.432c-0.265,1.206-1.146,1.909-2.545,2.092
				C37.515,30.462,37.009,30.499,36.504,30.549z"/>
			<path fill-rule="evenodd" clip-rule="evenodd" fill="#F1E9E2" d="M4.593,26.585l0.012-0.038c0.021-0.146,0.057-0.292,0.059-0.438
				c0.01-0.63,0.01-1.26,0.013-1.889c0.028,0.155,0.079,0.311,0.079,0.467c0.006,1.931,0.004,3.863,0.004,5.794
				c-0.049,0.001-0.099,0.003-0.147,0.004C4.605,29.186,4.6,27.885,4.593,26.585z"/>
			<path fill-rule="evenodd" clip-rule="evenodd" fill="#E7E5D6" d="M2.789,1.316C2.731,1.331,2.673,1.346,2.615,1.36
				C2.673,1.346,2.731,1.331,2.789,1.316z"/>
			<path fill-rule="evenodd" clip-rule="evenodd" fill="#9B9B9B" d="M19.761,20.206c-4.829,3.465-9.806,6.716-14.757,10.037
				c-0.198-0.251-0.087-0.399,0.102-0.524c4.669-3.108,9.338-6.216,14.009-9.322c0.178-0.118,0.37-0.212,0.556-0.317
				C19.7,20.121,19.73,20.163,19.761,20.206z"/>
			<path fill-rule="evenodd" clip-rule="evenodd" fill="#F1E9E2" d="M4.679,15.963c0.005-0.019,0.007-0.039,0.004-0.059
				c0.021-0.75,0.041-1.499,0.061-2.248c0.005-0.297,0.009-0.594,0.014-0.892c0.028,0.115,0.08,0.229,0.081,0.343
				c0.004,2.949,0.005,5.898-0.004,8.847c0,0.123-0.097,0.245-0.148,0.368c-0.005-1.209-0.01-2.418-0.015-3.627
				C4.673,17.785,4.676,16.874,4.679,15.963z"/>
			<path fill-rule="evenodd" clip-rule="evenodd" fill="#F1E9E2" d="M4.75,9.062c0.046-0.125-0.128-0.468,0.256-0.26
				C4.979,9.084,4.934,9.366,4.928,9.648c-0.013,0.56,0.005,1.121-0.012,1.681c-0.004,0.123-0.098,0.243-0.15,0.364
				C4.761,10.816,4.755,9.939,4.75,9.062z"/>
			<path fill-rule="evenodd" clip-rule="evenodd" fill="#CFDEBA" d="M4.685,13.673c0.021-0.003,0.041-0.008,0.06-0.017
				c-0.021,0.749-0.041,1.499-0.062,2.248c-0.027-0.3-0.082-0.6-0.079-0.899C4.609,14.561,4.656,14.117,4.685,13.673z"/>
		</g>
	</g>
</g>
</svg>
